<?xml version="1.0" encoding="UTF-8" standalone="no"?>
<svg
   xmlns:dc="http://purl.org/dc/elements/1.1/"
   xmlns:cc="http://creativecommons.org/ns#"
   xmlns:rdf="http://www.w3.org/1999/02/22-rdf-syntax-ns#"
   xmlns:svg="http://www.w3.org/2000/svg"
   xmlns="http://www.w3.org/2000/svg"
   xmlns:sodipodi="http://sodipodi.sourceforge.net/DTD/sodipodi-0.dtd"
   xmlns:inkscape="http://www.inkscape.org/namespaces/inkscape"
   version="1.0"
   width="1559.000000pt"
   height="1079.000000pt"
   viewBox="0 0 1559.000000 1079.000000"
   preserveAspectRatio="xMidYMid meet"
   id="svg42"
   sodipodi:docname="logoChacabuco_sinTexto_negro - copia.svg"
   inkscape:version="1.0.2-2 (e86c870879, 2021-01-15)">
  <metadata
     id="metadata48">
    <rdf:RDF>
      <cc:Work
         rdf:about="">
        <dc:format>image/svg+xml</dc:format>
        <dc:type
           rdf:resource="http://purl.org/dc/dcmitype/StillImage" />
        <dc:title></dc:title>
      </cc:Work>
    </rdf:RDF>
  </metadata>
  <defs
     id="defs46" />
  <sodipodi:namedview
     pagecolor="#ffffff"
     bordercolor="#666666"
     borderopacity="1"
     objecttolerance="10"
     gridtolerance="10"
     guidetolerance="10"
     inkscape:pageopacity="0"
     inkscape:pageshadow="2"
     inkscape:window-width="1366"
     inkscape:window-height="705"
     id="namedview44"
     showgrid="false"
     inkscape:zoom="0.37395737"
     inkscape:cx="1039.3333"
     inkscape:cy="719.33333"
     inkscape:window-x="-8"
     inkscape:window-y="-8"
     inkscape:window-maximized="1"
     inkscape:current-layer="svg42" />
  <g
     transform="translate(0.000000,1079.000000) scale(0.100000,-0.100000)"
     fill="#000000"
     stroke="none"
     id="g40"
     style="fill:#ffffff">
    <path
       d="M9957 10749 c-819 -40 -1583 -159 -2423 -374 -1740 -447 -3459 -1285 -4774 -2329 -802 -636 -1439 -1314 -1901 -2021 -485 -742 -755 -1455 -829 -2190 -15 -141 -15 -488 0 -630 37 -368 124 -690 264 -980 152 -314 316 -549 560 -803 472 -490 1250 -918 2102 -1157 407 -114 890 -196 1324 -224 790 -52 1418 -31 2220 74 248 33 693 118 805 154 l30 9 -35 1 c-19 1 -96 -8 -170 -19 -123 -18 -266 -36 -610 -75 -468 -54 -927 -72 -1405 -56 -447 15 -613 30 -988 92 -1130 185 -1949 521 -2548 1045 -478 419 -789 913 -934 1485 -114 450 -107 944 21 1454 320 1273 1341 2579 2868 3670 762 544 1704 1053 2594 1401 1191 466 2254 724 3452 839 680 64 1593 54 2225 -25 587 -73 1269 -290 1760 -559 580 -318 1020 -732 1272 -1196 100 -185 216 -470 282 -691 33 -111 78 -336 97 -479 20 -156 22 -510 5 -665 -39 -334 -126 -671 -253 -980 -229 -554 -527 -1011 -1073 -1649 -161 -188 -265 -321 -265 -338 -1 -75 271 186 591 567 593 706 1040 1549 1234 2327 134 540 149 1017 47 1483 -84 383 -339 859 -655 1226 -438 509 -1107 925 -1942 1211 -432 147 -1043 284 -1595 357 -366 48 -917 67 -1353 45z"
       id="path2"
       style="fill:#ffffff" />
    <path
       d="M11908 9219 c-78 -196 -103 -322 -113 -556 -5 -137 -24 -304 -35 -316 -11 -12 -56 86 -74 158 -37 148 -46 378 -21 520 8 43 12 81 10 83 -23 24 -54 -115 -63 -285 -13 -236 14 -417 88 -593 45 -107 64 -168 99 -315 25 -103 44 -156 93 -253 81 -159 83 -160 136 -121 23 17 79 46 123 65 104 44 172 89 251 168 70 70 113 137 163 253 47 109 164 453 154 453 -4 0 -11 -10 -15 -22 -4 -13 -46 -104 -94 -203 -62 -127 -98 -190 -124 -215 l-37 -35 10 28 c6 16 16 37 21 48 6 10 30 101 52 202 41 175 42 188 43 357 0 179 -14 280 -50 355 -14 29 -15 28 -10 -30 3 -33 11 -85 18 -115 16 -76 16 -365 0 -382 -10 -10 -13 -4 -13 27 0 96 -68 319 -172 565 -38 91 -79 189 -91 217 -12 29 -27 53 -33 53 -6 0 -21 -19 -34 -42 -13 -24 -66 -99 -117 -166 -103 -136 -132 -179 -175 -262 l-29 -55 4 130 c3 123 6 137 46 252 24 68 41 128 39 135 -3 7 -25 -40 -50 -103z m469 -529 c12 -38 17 -92 18 -175 0 -100 -5 -139 -29 -235 -21 -84 -31 -110 -36 -95 -18 48 -51 126 -84 200 -22 49 -40 111 -46 157 -10 68 -8 89 20 226 16 83 30 162 31 174 1 28 102 -174 126 -252z"
       id="path4"
       style="fill:#ffffff" />
    <path
       d="M8605 8717 c-292 -60 -581 -220 -837 -465 -108 -104 -176 -184 -267 -317 l-62 -90 213 -6 c117 -4 639 -10 1159 -14 l946 -7 37 188 c21 104 62 306 91 449 30 143 51 263 47 267 -4 3 -284 8 -622 10 -564 3 -621 2 -705 -15z"
       id="path6"
       style="fill:#ffffff" />
    <path
       d="M10690 8725 c0 -2 -43 -201 -96 -442 -104 -475 -123 -563 -741 -3382 l-418 -1904 30 -21 c16 -12 51 -41 77 -64 46 -43 47 -43 53 -20 6 27 114 520 185 848 27 124 134 614 239 1090 466 2125 843 3847 848 3873 l6 27 -92 0 c-50 0 -91 -2 -91 -5z"
       id="path8"
       style="fill:#ffffff" />
    <path
       d="M11240 8587 c0 -64 -15 -186 -50 -397 -27 -167 -52 -305 -54 -308 -9 -9 -29 86 -40 193 -18 177 -31 130 -31 -113 1 -213 1 -219 33 -334 18 -64 32 -133 32 -153 0 -54 36 -219 76 -353 59 -195 126 -321 247 -464 30 -35 66 -82 81 -105 26 -42 53 -56 60 -30 112 399 158 714 136 945 -21 222 -70 355 -188 509 -100 130 -143 196 -189 288 -46 90 -83 212 -83 271 0 63 -12 144 -21 144 -5 0 -9 -42 -9 -93z m190 -632 c24 -33 63 -84 87 -113 93 -114 115 -199 98 -377 -7 -83 -13 -85 -39 -14 -9 26 -41 83 -71 127 -101 151 -129 226 -139 377 -7 100 -12 100 64 0z"
       id="path10"
       style="fill:#ffffff" />
    <path
       d="M13003 8118 c-5 -7 -24 -48 -43 -91 -39 -92 -98 -152 -206 -211 -361 -196 -444 -268 -614 -535 -93 -147 -114 -189 -161 -328 -21 -63 -49 -134 -63 -157 -46 -79 -74 -162 -88 -259 -18 -118 -12 -134 47 -123 21 4 70 20 109 36 39 15 141 49 226 75 177 53 254 92 341 172 77 72 134 146 209 272 32 55 83 131 113 168 90 113 183 256 206 319 26 68 40 194 23 194 -7 0 -14 -12 -18 -27 -10 -43 -51 -108 -79 -127 l-26 -17 2 58 c1 32 -1 117 -6 190 -8 131 -8 133 23 225 39 120 45 153 28 167 -10 8 -16 8 -23 -1z m-364 -639 c-29 -56 -66 -118 -82 -136 -27 -31 -226 -158 -234 -150 -6 7 36 116 60 153 28 44 54 69 151 144 72 55 147 102 154 95 2 -2 -20 -50 -49 -106z"
       id="path12"
       style="fill:#ffffff" />
    <path
       d="M6820 7690 c-80 -26 -181 -62 -225 -80 -44 -18 -123 -47 -175 -65 -302 -103 -922 -385 -1155 -525 -47 -29 -136 -68 -215 -95 -74 -26 -162 -61 -195 -77 -133 -68 -245 -154 -245 -191 0 -19 4 -20 130 -15 l130 6 -44 -82 c-25 -44 -145 -261 -268 -480 l-224 -400 -129 -32 c-327 -81 -2193 -524 -2206 -524 -55 0 -194 -246 -364 -645 -54 -126 -102 -235 -107 -241 -5 -7 -41 -22 -81 -34 -39 -12 -94 -29 -121 -37 -27 -9 -64 -30 -82 -47 -31 -28 -35 -40 -50 -136 -9 -58 -25 -125 -35 -150 -13 -28 -24 -89 -31 -158 -12 -130 -6 -163 43 -230 l31 -42 404 0 404 0 0 -85 0 -84 -420 -3 c-333 -2 -422 -6 -429 -16 -4 -7 -9 -43 -10 -80 -1 -37 -8 -123 -17 -192 -12 -96 -21 -135 -40 -168 -24 -40 -64 -144 -64 -164 0 -4 360 -8 799 -8 l800 0 -14 33 c-49 117 -56 445 -15 642 116 548 556 983 1108 1095 620 125 1258 -185 1542 -750 100 -200 139 -356 147 -590 5 -161 -11 -336 -38 -407 l-9 -23 343 2 342 3 3 283 2 282 1338 -1 c735 -1 1386 -5 1446 -10 118 -10 310 -49 391 -80 74 -28 81 -26 88 25 6 45 122 611 134 655 l6 24 -1667 -5 -1668 -5 -72 91 c-81 101 -225 251 -301 314 l-50 42 1918 0 1917 0 10 23 c9 20 70 279 70 297 0 4 -111 11 -247 15 -137 4 -249 8 -249 8 -1 2 128 646 460 2292 91 450 166 829 166 840 0 22 -2 22 -307 28 -170 4 -792 7 -1383 6 l-1075 0 -145 -49z m-677 -1202 c4 -112 7 -295 7 -408 l0 -205 -103 -65 -102 -66 -185 -37 c-176 -36 -201 -38 -530 -52 -190 -8 -375 -15 -412 -15 -68 0 -68 0 -68 28 0 18 94 200 257 497 141 259 258 472 260 474 2 3 130 10 286 18 155 7 327 17 382 22 55 4 123 9 151 10 l51 1 6 -202z"
       id="path14"
       style="fill:#ffffff" />
    <path
       d="M11972 7413 c-14 -26 -172 -509 -232 -708 -28 -93 -67 -214 -86 -270 -85 -246 -180 -539 -250 -770 -203 -676 -302 -946 -479 -1315 -63 -132 -117 -263 -165 -405 -79 -233 -217 -529 -334 -715 -36 -58 -66 -110 -66 -117 0 -17 29 -43 48 -43 9 0 42 27 73 60 l57 60 44 -25 c78 -45 195 -77 288 -78 109 -1 187 19 320 85 153 75 199 125 294 321 44 91 90 171 115 199 22 25 41 49 41 52 0 11 -38 6 -138 -18 -54 -13 -143 -27 -198 -31 -128 -9 -212 -29 -299 -72 -100 -49 -125 -70 -266 -214 -69 -71 -130 -129 -135 -129 -5 0 19 57 53 128 73 146 126 278 251 624 50 135 131 344 182 463 50 119 111 267 135 330 72 191 319 985 377 1215 16 63 42 158 57 210 88 291 164 549 191 650 17 63 58 199 91 301 32 103 59 196 59 208 0 25 -16 28 -28 4z m-702 -3838 c-47 -50 -136 -84 -245 -95 -55 -5 -101 -8 -102 -6 -6 5 60 52 107 76 70 36 119 49 194 49 l69 1 -23 -25z"
       id="path16"
       style="fill:#ffffff" />
    <path
       d="M11002 7347 c-5 -6 -17 -68 -26 -137 -22 -160 -36 -217 -95 -370 -96 -246 -121 -359 -121 -535 0 -203 29 -306 165 -590 37 -77 78 -169 92 -205 42 -113 126 -270 143 -270 35 0 107 196 145 399 15 75 32 161 40 191 34 134 57 333 52 450 -10 217 -95 432 -270 678 -81 114 -107 191 -100 304 6 84 -3 113 -25 85z m150 -639 c78 -157 98 -229 105 -384 6 -142 -1 -165 -33 -101 -9 17 -36 61 -59 97 -46 71 -79 141 -90 189 -11 51 5 313 19 302 6 -5 32 -52 58 -103z"
       id="path18"
       style="fill:#ffffff" />
    <path
       d="M12655 6501 c-44 -35 -91 -59 -175 -91 -231 -85 -369 -172 -542 -338 -148 -143 -215 -253 -342 -557 -48 -116 -90 -183 -171 -279 -68 -80 -67 -92 16 -118 123 -38 203 -51 272 -44 208 19 448 169 571 356 23 36 64 106 90 155 27 50 80 142 117 206 38 64 76 136 85 160 8 25 19 104 24 179 14 218 36 289 109 348 43 34 55 73 24 71 -10 0 -45 -22 -78 -48z m-361 -388 c-42 -97 -73 -141 -117 -171 -56 -38 -217 -123 -217 -114 0 21 66 114 112 159 49 48 224 180 240 182 4 1 -4 -25 -18 -56z"
       id="path20"
       style="fill:#ffffff" />
    <path
       d="M13830 6009 c-41 -21 -120 -55 -175 -75 -55 -20 -141 -56 -191 -79 l-92 -43 10 37 c6 20 19 53 30 74 10 21 17 44 15 50 -7 18 -106 -91 -157 -172 -25 -40 -75 -105 -111 -146 -36 -40 -87 -108 -112 -152 -25 -43 -57 -89 -71 -102 l-26 -24 0 59 c0 146 52 338 122 452 33 54 14 60 -25 7 -90 -125 -203 -365 -239 -512 -16 -67 -22 -122 -23 -233 -2 -162 -23 -261 -73 -334 -48 -70 -485 -472 -640 -588 -169 -127 -302 -237 -302 -250 0 -5 -23 -34 -52 -64 -28 -30 -48 -57 -45 -60 3 -4 28 7 54 24 26 17 59 35 73 40 38 15 146 106 315 267 83 78 184 169 225 202 41 33 145 128 232 211 121 118 162 152 183 152 49 0 170 33 280 76 61 23 175 60 255 82 157 43 279 88 350 129 93 54 203 153 187 169 -2 2 -25 -12 -51 -32 -53 -40 -134 -79 -186 -89 -31 -6 -26 -1 40 42 83 54 164 138 242 247 51 71 128 218 128 243 0 8 6 24 14 36 20 31 56 141 56 172 0 39 -16 30 -35 -22 -62 -164 -169 -336 -245 -392 l-34 -26 21 30 c33 48 79 145 97 203 22 77 55 434 39 430 -4 0 -42 -18 -83 -39z m-90 -154 c-25 -65 -54 -106 -100 -143 -60 -48 -123 -64 -229 -60 l-71 3 58 46 c62 50 141 93 267 145 44 18 81 33 82 34 1 0 -2 -11 -7 -25z"
       id="path22"
       style="fill:#ffffff" />
    <path
       d="M10606 5972 c-3 -5 -14 -49 -25 -99 -11 -53 -41 -136 -70 -199 -150 -326 -164 -371 -196 -629 -30 -238 -15 -448 45 -637 24 -78 46 -121 110 -217 70 -104 112 -181 134 -244 8 -24 35 -33 51 -16 25 27 54 128 70 240 21 156 28 176 100 319 105 210 139 339 137 526 -1 201 -41 324 -180 557 -130 215 -133 225 -130 320 3 77 2 82 -19 85 -11 2 -24 -1 -27 -6z m179 -727 c30 -97 45 -214 35 -278 -4 -26 -9 -50 -12 -53 -9 -8 -96 135 -112 185 -10 30 -16 100 -18 202 l-3 157 42 -67 c24 -36 54 -102 68 -146z"
       id="path24"
       style="fill:#ffffff" />
    <path
       d="M12630 5858 c-36 -99 -114 -249 -157 -303 -91 -115 -96 -127 -109 -257 -12 -113 -15 -127 -62 -222 -39 -77 -54 -123 -67 -196 -42 -238 -78 -344 -158 -454 -20 -27 -34 -53 -31 -58 3 -4 21 -8 39 -8 45 0 92 42 151 133 25 39 98 125 161 192 129 137 170 191 218 285 54 108 75 191 88 353 11 141 10 150 -12 224 -36 124 -37 160 -7 247 31 89 31 90 10 110 -27 28 -41 18 -64 -46z m-22 -474 c-4 -51 -11 -82 -28 -108 -27 -45 -33 -42 -18 10 6 23 8 75 5 128 -4 56 -2 97 5 109 18 35 41 -53 36 -139z"
       id="path26"
       style="fill:#ffffff" />
    <path
       d="M12222 5169 c-96 -93 -144 -119 -294 -155 -115 -29 -218 -79 -325 -158 -109 -81 -387 -360 -435 -435 -45 -72 -116 -218 -155 -321 -13 -36 -38 -89 -54 -119 -16 -30 -29 -61 -29 -68 0 -8 39 -33 87 -56 99 -47 172 -57 276 -38 92 18 230 91 319 169 116 101 410 446 460 539 41 75 130 368 158 518 7 36 27 86 51 126 64 107 53 106 -59 -2z m-284 -330 c-42 -76 -110 -133 -226 -193 -60 -30 -129 -72 -153 -91 -52 -45 -84 -61 -132 -70 -51 -10 -49 7 9 84 77 103 235 206 424 277 47 17 89 32 93 33 5 1 -2 -18 -15 -40z"
       id="path28"
       style="fill:#ffffff" />
    <path
       d="M13900 4841 c-13 -25 -113 -103 -173 -134 -49 -27 -88 -32 -322 -47 -208 -13 -357 -53 -730 -197 -122 -47 -295 -153 -401 -244 -107 -93 -197 -179 -192 -185 3 -3 34 -12 69 -20 35 -8 98 -30 141 -50 82 -37 199 -64 277 -64 47 0 161 16 320 46 133 25 293 81 382 134 102 62 244 167 290 217 37 39 79 96 79 107 0 18 -22 0 -59 -48 -23 -30 -53 -62 -66 -70 -24 -16 -24 -16 -15 9 20 54 51 104 106 175 32 41 70 94 84 117 17 26 56 61 106 95 76 51 144 129 144 164 0 21 -28 17 -40 -5z m-530 -317 c-52 -52 -141 -99 -221 -116 -48 -10 -63 -9 -100 5 -24 9 -57 27 -73 40 l-29 24 64 12 c35 6 89 21 119 32 50 18 200 46 260 48 23 1 21 -2 -20 -45z"
       id="path30"
       style="fill:#ffffff" />
    <path
       d="M10135 4533 c-4 -21 -17 -93 -31 -161 -32 -166 -48 -368 -41 -537 8 -224 34 -312 139 -472 28 -43 64 -104 80 -135 20 -40 34 -58 48 -58 21 0 23 6 44 115 8 44 32 127 52 185 51 149 56 256 20 442 -48 246 -90 351 -200 491 -63 81 -76 102 -74 129 2 24 -2 33 -14 36 -13 2 -18 -6 -23 -35z m156 -478 c6 -27 9 -67 7 -88 l-3 -39 -46 70 c-54 81 -74 152 -64 219 l7 47 44 -79 c24 -44 49 -102 55 -130z"
       id="path32"
       style="fill:#ffffff" />
    <path
       d="M3890 4263 c-337 -27 -676 -201 -889 -459 -132 -160 -216 -322 -266 -515 -47 -179 -46 -480 1 -647 l15 -52 192 2 192 3 -2 25 c-1 14 -14 63 -29 110 -25 78 -28 99 -28 245 -1 136 2 171 21 235 96 334 339 570 669 652 123 30 303 30 428 -1 171 -41 329 -132 443 -255 78 -83 114 -136 163 -238 113 -236 118 -497 15 -760 -7 -17 7 -18 203 -18 116 0 213 4 216 8 3 5 15 55 27 113 32 148 31 382 -1 524 -58 258 -170 465 -352 646 -217 218 -490 348 -797 379 -101 10 -129 10 -221 3z"
       id="path34"
       style="fill:#ffffff" />
    <path
       d="M12840 3865 c-32 -31 -45 -36 -135 -52 -99 -16 -102 -16 -223 7 -141 26 -215 24 -308 -11 -197 -72 -221 -79 -279 -79 -75 -1 -131 -13 -163 -37 -24 -18 -105 -166 -151 -277 -33 -79 -96 -153 -170 -200 -33 -22 -61 -43 -61 -47 0 -14 61 -51 107 -65 97 -29 322 -11 488 40 144 43 413 144 477 178 91 48 192 152 268 278 37 59 99 141 143 188 43 46 76 89 74 95 -7 23 -33 17 -67 -18z m-516 -171 c62 -16 189 -15 230 1 32 14 1 -31 -45 -65 -54 -39 -133 -55 -202 -41 -73 16 -197 64 -194 76 5 14 86 44 121 44 15 1 56 -6 90 -15z"
       id="path36"
       style="fill:#ffffff" />
    <path
       d="M6132 2873 l3 -248 1260 0 1260 0 3 248 2 247 -1265 0 -1265 0 2 -247z"
       id="path38"
       style="fill:#ffffff" />
  </g>
</svg>
