<?xml version="1.0" encoding="UTF-8" standalone="no"?>
<svg
   xmlns:dc="http://purl.org/dc/elements/1.1/"
   xmlns:cc="http://creativecommons.org/ns#"
   xmlns:rdf="http://www.w3.org/1999/02/22-rdf-syntax-ns#"
   xmlns:svg="http://www.w3.org/2000/svg"
   xmlns="http://www.w3.org/2000/svg"
   xmlns:sodipodi="http://sodipodi.sourceforge.net/DTD/sodipodi-0.dtd"
   xmlns:inkscape="http://www.inkscape.org/namespaces/inkscape"
   version="1.0"
   width="1662.000000pt"
   height="1364.000000pt"
   viewBox="0 0 1662.000000 1364.000000"
   preserveAspectRatio="xMidYMid meet"
   id="svg80"
   sodipodi:docname="logoChacabuco_conTexto_negro - copia.svg"
   inkscape:version="1.0.2-2 (e86c870879, 2021-01-15)">
  <metadata
     id="metadata86">
    <rdf:RDF>
      <cc:Work
         rdf:about="">
        <dc:format>image/svg+xml</dc:format>
        <dc:type
           rdf:resource="http://purl.org/dc/dcmitype/StillImage" />
        <dc:title></dc:title>
      </cc:Work>
    </rdf:RDF>
  </metadata>
  <defs
     id="defs84" />
  <sodipodi:namedview
     pagecolor="#ffffff"
     bordercolor="#666666"
     borderopacity="1"
     objecttolerance="10"
     gridtolerance="10"
     guidetolerance="10"
     inkscape:pageopacity="0"
     inkscape:pageshadow="2"
     inkscape:window-width="1366"
     inkscape:window-height="705"
     id="namedview82"
     showgrid="false"
     inkscape:zoom="0.29582111"
     inkscape:cx="1108"
     inkscape:cy="774.11648"
     inkscape:window-x="-8"
     inkscape:window-y="-8"
     inkscape:window-maximized="1"
     inkscape:current-layer="svg80" />
  <g
     transform="translate(0.000000,1364.000000) scale(0.100000,-0.100000)"
     fill="#000000"
     stroke="none"
     id="g78"
     style="fill:#ffffff">
    <path
       d="M11330 13580 c-1492 -76 -3296 -611 -4910 -1455 -1301 -681 -2500 -1552 -3509 -2549 -648 -641 -1117 -1204 -1566 -1881 -269 -406 -428 -680 -615 -1060 -409 -832 -642 -1630 -701 -2405 -15 -193 -6 -718 15 -880 49 -384 113 -642 233 -935 49 -120 161 -349 226 -460 139 -242 417 -576 647 -780 327 -290 863 -599 1345 -778 568 -210 1068 -314 1725 -358 219 -15 788 -6 1030 15 842 75 1296 153 2045 352 454 121 1049 322 1224 415 51 27 53 29 21 23 -19 -3 -114 -30 -210 -59 -178 -54 -241 -72 -340 -99 -30 -8 -145 -39 -255 -70 -526 -146 -982 -235 -1566 -305 -375 -46 -542 -56 -904 -55 -915 2 -1736 142 -2383 406 -283 114 -625 307 -840 472 -205 158 -450 401 -626 624 -119 150 -279 414 -373 613 -122 257 -244 709 -282 1039 -33 281 -31 670 4 960 159 1306 893 2750 2084 4101 733 831 1692 1654 2691 2311 927 609 1955 1127 2925 1473 416 149 712 241 1084 336 824 211 1512 308 2306 325 626 14 1377 -57 1790 -168 732 -196 1309 -522 1770 -1000 148 -152 231 -255 340 -418 134 -201 261 -462 338 -695 40 -121 125 -437 148 -550 90 -436 104 -963 38 -1420 -81 -564 -253 -1115 -518 -1661 -165 -338 -382 -716 -616 -1074 -216 -328 -289 -460 -256 -460 28 0 211 230 360 455 242 362 418 658 563 950 419 836 673 1637 767 2415 37 299 33 743 -10 1035 -74 514 -326 1111 -654 1546 -172 228 -323 386 -545 569 -155 129 -174 143 -330 247 -420 280 -829 467 -1400 638 -454 136 -753 196 -1195 241 -186 19 -852 27 -1115 14z"
       id="path2"
       style="fill:#ffffff" />
    <path
       d="M13148 12009 c-78 -196 -103 -322 -113 -556 -5 -137 -24 -304 -35 -316 -11 -12 -56 86 -74 158 -37 148 -46 378 -21 520 8 43 12 81 10 83 -23 24 -54 -115 -63 -285 -13 -236 14 -417 88 -593 45 -107 64 -168 99 -315 25 -103 44 -156 93 -253 81 -159 83 -160 136 -121 23 17 79 46 123 65 104 44 172 89 251 168 70 70 113 137 163 253 47 109 164 453 154 453 -4 0 -11 -10 -15 -22 -4 -13 -46 -104 -94 -203 -62 -127 -98 -190 -124 -215 l-37 -35 10 28 c6 16 16 37 21 48 6 10 30 101 52 202 41 175 42 188 43 357 0 179 -14 280 -50 355 -14 29 -15 28 -10 -30 3 -33 11 -85 18 -115 16 -76 16 -365 0 -382 -10 -10 -13 -4 -13 27 0 96 -68 319 -172 565 -38 91 -79 189 -91 217 -12 29 -27 53 -33 53 -6 0 -21 -19 -34 -42 -13 -24 -66 -99 -117 -166 -103 -136 -132 -179 -175 -262 l-29 -55 4 130 c3 123 6 137 46 252 24 68 41 128 39 135 -3 7 -25 -40 -50 -103z m469 -529 c12 -38 17 -92 18 -175 0 -100 -5 -139 -29 -235 -21 -84 -31 -110 -36 -95 -18 48 -51 126 -84 200 -22 49 -40 111 -46 157 -10 68 -8 89 20 226 16 83 30 162 31 174 1 28 102 -174 126 -252z"
       id="path4"
       style="fill:#ffffff" />
    <path
       d="M9845 11507 c-292 -60 -581 -220 -837 -465 -108 -104 -176 -184 -267 -317 l-62 -90 213 -6 c117 -4 639 -10 1159 -14 l946 -7 37 188 c21 104 62 306 91 449 30 143 51 263 47 267 -4 3 -284 8 -622 10 -564 3 -621 2 -705 -15z"
       id="path6"
       style="fill:#ffffff" />
    <path
       d="M11930 11515 c0 -2 -43 -201 -96 -442 -104 -475 -123 -563 -741 -3382 l-418 -1904 30 -21 c16 -12 51 -41 77 -64 46 -43 47 -43 53 -20 6 27 114 520 185 848 27 124 134 614 239 1090 466 2125 843 3847 848 3873 l6 27 -92 0 c-50 0 -91 -2 -91 -5z"
       id="path8"
       style="fill:#ffffff" />
    <path
       d="M12480 11377 c0 -64 -15 -186 -50 -397 -27 -167 -52 -305 -54 -308 -9 -9 -29 86 -40 193 -18 177 -31 130 -31 -113 1 -213 1 -219 33 -334 18 -64 32 -133 32 -153 0 -54 36 -219 76 -353 59 -195 126 -321 247 -464 30 -35 66 -82 81 -105 26 -42 53 -56 60 -30 112 399 158 714 136 945 -21 222 -70 355 -188 509 -100 130 -143 196 -189 288 -46 90 -83 212 -83 271 0 63 -12 144 -21 144 -5 0 -9 -42 -9 -93z m190 -632 c24 -33 63 -84 87 -113 93 -114 115 -199 98 -377 -7 -83 -13 -85 -39 -14 -9 26 -41 83 -71 127 -101 151 -129 226 -139 377 -7 100 -12 100 64 0z"
       id="path10"
       style="fill:#ffffff" />
    <path
       d="M14243 10908 c-5 -7 -24 -48 -43 -91 -39 -92 -98 -152 -206 -211 -361 -196 -444 -268 -614 -535 -93 -147 -114 -189 -161 -328 -21 -63 -49 -134 -63 -157 -46 -79 -74 -162 -88 -259 -18 -118 -12 -134 47 -123 21 4 70 20 109 36 39 15 141 49 226 75 177 53 254 92 341 172 77 72 134 146 209 272 32 55 83 131 113 168 90 113 183 256 206 319 26 68 40 194 23 194 -7 0 -14 -12 -18 -27 -10 -43 -51 -108 -79 -127 l-26 -17 2 58 c1 32 -1 117 -6 190 -8 131 -8 133 23 225 39 120 45 153 28 167 -10 8 -16 8 -23 -1z m-364 -639 c-29 -56 -66 -118 -82 -136 -27 -31 -226 -158 -234 -150 -6 7 36 116 60 153 28 44 54 69 151 144 72 55 147 102 154 95 2 -2 -20 -50 -49 -106z"
       id="path12"
       style="fill:#ffffff" />
    <path
       d="M8060 10480 c-80 -26 -181 -62 -225 -80 -44 -18 -123 -47 -175 -65 -302 -103 -922 -385 -1155 -525 -47 -29 -136 -68 -215 -95 -74 -26 -162 -61 -195 -77 -133 -68 -245 -154 -245 -191 0 -19 4 -20 130 -15 l130 6 -44 -82 c-25 -44 -145 -261 -268 -480 l-224 -400 -129 -32 c-327 -81 -2193 -524 -2206 -524 -55 0 -194 -246 -364 -645 -54 -126 -102 -235 -107 -241 -5 -7 -41 -22 -81 -34 -39 -12 -94 -29 -121 -37 -27 -9 -64 -30 -82 -47 -31 -28 -35 -40 -50 -136 -9 -58 -25 -125 -35 -150 -13 -28 -24 -89 -31 -158 -12 -130 -6 -163 43 -230 l31 -42 404 0 404 0 0 -85 0 -84 -420 -3 c-333 -2 -422 -6 -429 -16 -4 -7 -9 -43 -10 -80 -1 -37 -8 -123 -17 -192 -12 -96 -21 -135 -40 -168 -24 -40 -64 -144 -64 -164 0 -4 360 -8 799 -8 l800 0 -14 33 c-49 117 -56 445 -15 642 116 548 556 983 1108 1095 620 125 1258 -185 1542 -750 100 -200 139 -356 147 -590 5 -161 -11 -336 -38 -407 l-9 -23 343 2 342 3 3 283 2 282 1338 -1 c735 -1 1386 -5 1446 -10 118 -10 310 -49 391 -80 74 -28 81 -26 88 25 6 45 122 611 134 655 l6 24 -1667 -5 -1668 -5 -72 91 c-81 101 -225 251 -301 314 l-50 42 1918 0 1917 0 10 23 c9 20 70 279 70 297 0 4 -111 11 -247 15 -137 4 -249 8 -249 8 -1 2 128 646 460 2292 91 450 166 829 166 840 0 22 -2 22 -307 28 -170 4 -792 7 -1383 6 l-1075 0 -145 -49z m-677 -1202 c4 -112 7 -295 7 -408 l0 -205 -103 -65 -102 -66 -185 -37 c-176 -36 -201 -38 -530 -52 -190 -8 -375 -15 -412 -15 -68 0 -68 0 -68 28 0 18 94 200 257 497 141 259 258 472 260 474 2 3 130 10 286 18 155 7 327 17 382 22 55 4 123 9 151 10 l51 1 6 -202z"
       id="path14"
       style="fill:#ffffff" />
    <path
       d="M13212 10203 c-14 -26 -172 -509 -232 -708 -28 -93 -67 -214 -86 -270 -85 -246 -180 -539 -250 -770 -203 -676 -302 -946 -479 -1315 -63 -132 -117 -263 -165 -405 -79 -233 -217 -529 -334 -715 -36 -58 -66 -110 -66 -117 0 -17 29 -43 48 -43 9 0 42 27 73 60 l57 60 44 -25 c78 -45 195 -77 288 -78 109 -1 187 19 320 85 153 75 199 125 294 321 44 91 90 171 115 199 22 25 41 49 41 52 0 11 -38 6 -138 -18 -54 -13 -143 -27 -198 -31 -128 -9 -212 -29 -299 -72 -100 -49 -125 -70 -266 -214 -69 -71 -130 -129 -135 -129 -5 0 19 57 53 128 73 146 126 278 251 624 50 135 131 344 182 463 50 119 111 267 135 330 72 191 319 985 377 1215 16 63 42 158 57 210 88 291 164 549 191 650 17 63 58 199 91 301 32 103 59 196 59 208 0 25 -16 28 -28 4z m-702 -3838 c-47 -50 -136 -84 -245 -95 -55 -5 -101 -8 -102 -6 -6 5 60 52 107 76 70 36 119 49 194 49 l69 1 -23 -25z"
       id="path16"
       style="fill:#ffffff" />
    <path
       d="M12242 10137 c-5 -6 -17 -68 -26 -137 -22 -160 -36 -217 -95 -370 -96 -246 -121 -359 -121 -535 0 -203 29 -306 165 -590 37 -77 78 -169 92 -205 42 -113 126 -270 143 -270 35 0 107 196 145 399 15 75 32 161 40 191 34 134 57 333 52 450 -10 217 -95 432 -270 678 -81 114 -107 191 -100 304 6 84 -3 113 -25 85z m150 -639 c78 -157 98 -229 105 -384 6 -142 -1 -165 -33 -101 -9 17 -36 61 -59 97 -46 71 -79 141 -90 189 -11 51 5 313 19 302 6 -5 32 -52 58 -103z"
       id="path18"
       style="fill:#ffffff" />
    <path
       d="M13895 9291 c-44 -35 -91 -59 -175 -91 -231 -85 -369 -172 -542 -338 -148 -143 -215 -253 -342 -557 -48 -116 -90 -183 -171 -279 -68 -80 -67 -92 16 -118 123 -38 203 -51 272 -44 208 19 448 169 571 356 23 36 64 106 90 155 27 50 80 142 117 206 38 64 76 136 85 160 8 25 19 104 24 179 14 218 36 289 109 348 43 34 55 73 24 71 -10 0 -45 -22 -78 -48z m-361 -388 c-42 -97 -73 -141 -117 -171 -56 -38 -217 -123 -217 -114 0 21 66 114 112 159 49 48 224 180 240 182 4 1 -4 -25 -18 -56z"
       id="path20"
       style="fill:#ffffff" />
    <path
       d="M15070 8799 c-41 -21 -120 -55 -175 -75 -55 -20 -141 -56 -191 -79 l-92 -43 10 37 c6 20 19 53 30 74 10 21 17 44 15 50 -7 18 -106 -91 -157 -172 -25 -40 -75 -105 -111 -146 -36 -40 -87 -108 -112 -152 -25 -43 -57 -89 -71 -102 l-26 -24 0 59 c0 146 52 338 122 452 33 54 14 60 -25 7 -90 -125 -203 -365 -239 -512 -16 -67 -22 -122 -23 -233 -2 -162 -23 -261 -73 -334 -48 -70 -485 -472 -640 -588 -169 -127 -302 -237 -302 -250 0 -5 -23 -34 -52 -64 -28 -30 -48 -57 -45 -60 3 -4 28 7 54 24 26 17 59 35 73 40 38 15 146 106 315 267 83 78 184 169 225 202 41 33 145 128 232 211 121 118 162 152 183 152 49 0 170 33 280 76 61 23 175 60 255 82 157 43 279 88 350 129 93 54 203 153 187 169 -2 2 -25 -12 -51 -32 -53 -40 -134 -79 -186 -89 -31 -6 -26 -1 40 42 83 54 164 138 242 247 51 71 128 218 128 243 0 8 6 24 14 36 20 31 56 141 56 172 0 39 -16 30 -35 -22 -62 -164 -169 -336 -245 -392 l-34 -26 21 30 c33 48 79 145 97 203 22 77 55 434 39 430 -4 0 -42 -18 -83 -39z m-90 -154 c-25 -65 -54 -106 -100 -143 -60 -48 -123 -64 -229 -60 l-71 3 58 46 c62 50 141 93 267 145 44 18 81 33 82 34 1 0 -2 -11 -7 -25z"
       id="path22"
       style="fill:#ffffff" />
    <path
       d="M11846 8762 c-3 -5 -14 -49 -25 -99 -11 -53 -41 -136 -70 -199 -150 -326 -164 -371 -196 -629 -30 -238 -15 -448 45 -637 24 -78 46 -121 110 -217 70 -104 112 -181 134 -244 8 -24 35 -33 51 -16 25 27 54 128 70 240 21 156 28 176 100 319 105 210 139 339 137 526 -1 201 -41 324 -180 557 -130 215 -133 225 -130 320 3 77 2 82 -19 85 -11 2 -24 -1 -27 -6z m179 -727 c30 -97 45 -214 35 -278 -4 -26 -9 -50 -12 -53 -9 -8 -96 135 -112 185 -10 30 -16 100 -18 202 l-3 157 42 -67 c24 -36 54 -102 68 -146z"
       id="path24"
       style="fill:#ffffff" />
    <path
       d="M13870 8648 c-36 -99 -114 -249 -157 -303 -91 -115 -96 -127 -109 -257 -12 -113 -15 -127 -62 -222 -39 -77 -54 -123 -67 -196 -42 -238 -78 -344 -158 -454 -20 -27 -34 -53 -31 -58 3 -4 21 -8 39 -8 45 0 92 42 151 133 25 39 98 125 161 192 129 137 170 191 218 285 54 108 75 191 88 353 11 141 10 150 -12 224 -36 124 -37 160 -7 247 31 89 31 90 10 110 -27 28 -41 18 -64 -46z m-22 -474 c-4 -51 -11 -82 -28 -108 -27 -45 -33 -42 -18 10 6 23 8 75 5 128 -4 56 -2 97 5 109 18 35 41 -53 36 -139z"
       id="path26"
       style="fill:#ffffff" />
    <path
       d="M13462 7959 c-96 -93 -144 -119 -294 -155 -115 -29 -218 -79 -325 -158 -109 -81 -387 -360 -435 -435 -45 -72 -116 -218 -155 -321 -13 -36 -38 -89 -54 -119 -16 -30 -29 -61 -29 -68 0 -8 39 -33 87 -56 99 -47 172 -57 276 -38 92 18 230 91 319 169 116 101 410 446 460 539 41 75 130 368 158 518 7 36 27 86 51 126 64 107 53 106 -59 -2z m-284 -330 c-42 -76 -110 -133 -226 -193 -60 -30 -129 -72 -153 -91 -52 -45 -84 -61 -132 -70 -51 -10 -49 7 9 84 77 103 235 206 424 277 47 17 89 32 93 33 5 1 -2 -18 -15 -40z"
       id="path28"
       style="fill:#ffffff" />
    <path
       d="M15140 7631 c-13 -25 -113 -103 -173 -134 -49 -27 -88 -32 -322 -47 -208 -13 -357 -53 -730 -197 -122 -47 -295 -153 -401 -244 -107 -93 -197 -179 -192 -185 3 -3 34 -12 69 -20 35 -8 98 -30 141 -50 82 -37 199 -64 277 -64 47 0 161 16 320 46 133 25 293 81 382 134 102 62 244 167 290 217 37 39 79 96 79 107 0 18 -22 0 -59 -48 -23 -30 -53 -62 -66 -70 -24 -16 -24 -16 -15 9 20 54 51 104 106 175 32 41 70 94 84 117 17 26 56 61 106 95 76 51 144 129 144 164 0 21 -28 17 -40 -5z m-530 -317 c-52 -52 -141 -99 -221 -116 -48 -10 -63 -9 -100 5 -24 9 -57 27 -73 40 l-29 24 64 12 c35 6 89 21 119 32 50 18 200 46 260 48 23 1 21 -2 -20 -45z"
       id="path30"
       style="fill:#ffffff" />
    <path
       d="M11375 7323 c-4 -21 -17 -93 -31 -161 -32 -166 -48 -368 -41 -537 8 -224 34 -312 139 -472 28 -43 64 -104 80 -135 20 -40 34 -58 48 -58 21 0 23 6 44 115 8 44 32 127 52 185 51 149 56 256 20 442 -48 246 -90 351 -200 491 -63 81 -76 102 -74 129 2 24 -2 33 -14 36 -13 2 -18 -6 -23 -35z m156 -478 c6 -27 9 -67 7 -88 l-3 -39 -46 70 c-54 81 -74 152 -64 219 l7 47 44 -79 c24 -44 49 -102 55 -130z"
       id="path32"
       style="fill:#ffffff" />
    <path
       d="M5130 7053 c-337 -27 -676 -201 -889 -459 -132 -160 -216 -322 -266 -515 -47 -179 -46 -480 1 -647 l15 -52 192 2 192 3 -2 25 c-1 14 -14 63 -29 110 -25 78 -28 99 -28 245 -1 136 2 171 21 235 96 334 339 570 669 652 123 30 303 30 428 -1 171 -41 329 -132 443 -255 78 -83 114 -136 163 -238 113 -236 118 -497 15 -760 -7 -17 7 -18 203 -18 116 0 213 4 216 8 3 5 15 55 27 113 32 148 31 382 -1 524 -58 258 -170 465 -352 646 -217 218 -490 348 -797 379 -101 10 -129 10 -221 3z"
       id="path34"
       style="fill:#ffffff" />
    <path
       d="M14080 6655 c-32 -31 -45 -36 -135 -52 -99 -16 -102 -16 -223 7 -141 26 -215 24 -308 -11 -197 -72 -221 -79 -279 -79 -75 -1 -131 -13 -163 -37 -24 -18 -105 -166 -151 -277 -33 -79 -96 -153 -170 -200 -33 -22 -61 -43 -61 -47 0 -14 61 -51 107 -65 97 -29 322 -11 488 40 144 43 413 144 477 178 91 48 192 152 268 278 37 59 99 141 143 188 43 46 76 89 74 95 -7 23 -33 17 -67 -18z m-516 -171 c62 -16 189 -15 230 1 32 14 1 -31 -45 -65 -54 -39 -133 -55 -202 -41 -73 16 -197 64 -194 76 5 14 86 44 121 44 15 1 56 -6 90 -15z"
       id="path36"
       style="fill:#ffffff" />
    <path
       d="M7372 5663 l3 -248 1260 0 1260 0 3 248 2 247 -1265 0 -1265 0 2 -247z"
       id="path38"
       style="fill:#ffffff" />
    <path
       d="M2890 5225 c-84 -23 -209 -89 -268 -140 -61 -55 -132 -151 -162 -221 -12 -27 -98 -317 -191 -644 -149 -520 -171 -604 -171 -670 -3 -223 144 -342 404 -327 170 9 297 66 418 187 95 95 134 172 195 381 25 86 45 161 45 168 0 8 -45 11 -149 11 l-150 0 -15 -52 c-8 -29 -29 -104 -47 -166 -36 -126 -66 -177 -131 -219 -36 -24 -51 -28 -116 -28 -71 0 -75 1 -103 33 -23 26 -29 42 -29 79 0 52 309 1151 340 1213 24 46 76 95 122 114 82 34 186 9 208 -50 17 -42 12 -84 -25 -211 -19 -67 -35 -127 -35 -132 0 -7 49 -11 145 -11 127 0 145 2 154 18 5 9 26 78 47 152 74 268 36 408 -133 492 -61 30 -74 32 -182 35 -80 2 -133 -2 -171 -12z"
       id="path40"
       style="fill:#ffffff" />
    <path
       d="M6660 5225 c-84 -23 -209 -89 -268 -140 -61 -55 -132 -151 -162 -221 -12 -27 -98 -317 -191 -644 -149 -520 -171 -604 -171 -670 -3 -223 144 -342 404 -327 170 9 297 66 418 187 95 95 134 172 195 381 25 86 45 161 45 168 0 8 -45 11 -149 11 l-150 0 -15 -52 c-8 -29 -29 -104 -47 -166 -36 -126 -66 -177 -131 -219 -36 -24 -51 -28 -116 -28 -71 0 -75 1 -103 33 -23 26 -29 42 -29 79 0 52 309 1151 340 1213 24 46 76 95 122 114 82 34 186 9 208 -50 17 -42 12 -84 -25 -211 -19 -67 -35 -127 -35 -132 0 -7 49 -11 145 -11 127 0 145 2 154 18 5 9 26 78 47 152 74 268 36 408 -133 492 -61 30 -74 32 -182 35 -80 2 -133 -2 -171 -12z"
       id="path42"
       style="fill:#ffffff" />
    <path
       d="M11660 5225 c-84 -23 -209 -89 -268 -140 -61 -55 -132 -151 -162 -221 -12 -27 -98 -317 -191 -644 -149 -520 -171 -604 -171 -670 -3 -223 144 -342 404 -327 170 9 297 66 418 187 95 95 134 172 195 381 25 86 45 161 45 168 0 8 -45 11 -149 11 l-150 0 -15 -52 c-8 -29 -29 -104 -47 -166 -36 -126 -66 -177 -131 -219 -36 -24 -51 -28 -116 -28 -71 0 -75 1 -103 33 -23 26 -29 42 -29 79 0 52 309 1151 340 1213 24 46 76 95 122 114 82 34 186 9 208 -50 17 -42 12 -84 -25 -211 -19 -67 -35 -127 -35 -132 0 -7 49 -11 145 -11 127 0 145 2 154 18 5 9 26 78 47 152 74 268 36 408 -133 492 -61 30 -74 32 -182 35 -80 2 -133 -2 -171 -12z"
       id="path44"
       style="fill:#ffffff" />
    <path
       d="M12965 5230 c-147 -20 -267 -80 -375 -189 -120 -121 -126 -136 -319 -814 -157 -547 -171 -604 -171 -677 0 -145 58 -238 185 -296 49 -23 78 -28 161 -32 198 -9 360 53 495 188 119 119 132 152 319 807 87 309 164 592 170 628 33 206 -81 354 -295 385 -78 11 -85 11 -170 0z m95 -297 c36 -21 50 -52 50 -109 0 -27 -61 -259 -162 -611 -129 -450 -168 -576 -192 -612 -42 -61 -118 -101 -193 -101 -94 0 -143 41 -143 120 0 28 61 258 164 618 180 631 181 635 271 684 61 33 159 39 205 11z"
       id="path46"
       style="fill:#ffffff" />
    <path
       d="M3797 5203 c-3 -5 -127 -438 -276 -963 -150 -525 -274 -963 -277 -972 -5 -17 7 -18 150 -18 l155 0 14 53 c9 28 64 222 123 430 l107 377 183 0 c142 0 182 -3 179 -12 -13 -40 -235 -830 -235 -838 0 -6 62 -10 153 -10 l152 0 275 966 c151 531 276 972 278 980 3 12 -22 14 -151 14 l-154 0 -108 -377 c-59 -208 -112 -393 -117 -410 l-9 -33 -183 0 -183 0 117 410 117 410 -153 0 c-84 0 -155 -3 -157 -7z"
       id="path48"
       style="fill:#ffffff" />
    <path
       d="M4920 4258 c-239 -523 -440 -964 -447 -980 l-12 -29 155 3 155 3 93 210 92 210 167 3 c92 1 167 -1 167 -5 -1 -5 -13 -101 -28 -215 l-28 -208 158 0 c87 0 158 2 158 4 0 8 210 1875 215 1914 l6 42 -208 0 -208 0 -435 -952z m465 114 c-29 -216 -55 -395 -57 -398 -3 -2 -59 -3 -125 -2 l-119 3 118 270 c204 466 231 526 233 523 1 -2 -21 -180 -50 -396z"
       id="path50"
       style="fill:#ffffff" />
    <path
       d="M7370 4258 c-239 -523 -440 -964 -447 -980 l-12 -29 155 3 155 3 93 210 92 210 167 3 c92 1 167 -1 167 -5 -1 -5 -13 -101 -28 -215 l-28 -208 158 0 c87 0 158 2 158 4 0 8 210 1875 215 1914 l6 42 -208 0 -208 0 -435 -952z m465 114 c-29 -216 -55 -395 -57 -398 -3 -2 -59 -3 -125 -2 l-119 3 118 270 c204 466 231 526 233 523 1 -2 -21 -180 -50 -396z"
       id="path52"
       style="fill:#ffffff" />
    <path
       d="M8797 5203 c-3 -4 -127 -438 -276 -963 -150 -525 -274 -963 -277 -972 -5 -17 13 -18 288 -18 337 0 388 7 516 71 106 52 210 153 264 255 43 82 116 322 125 410 9 95 -16 167 -81 230 l-53 51 51 31 c71 42 168 146 204 219 17 33 45 107 63 164 26 85 32 122 33 204 1 86 -2 107 -22 147 -31 62 -96 120 -168 149 -57 23 -71 24 -361 27 -165 2 -303 0 -306 -5z m460 -284 c83 -31 96 -83 58 -223 -52 -187 -96 -251 -199 -281 -51 -15 -236 -21 -236 -8 0 10 141 506 147 516 7 11 198 8 230 -4z m-222 -810 c89 -22 111 -84 76 -216 -60 -233 -90 -291 -175 -336 -35 -18 -62 -22 -173 -25 -73 -2 -133 -1 -133 2 0 10 161 569 166 578 8 12 189 10 239 -3z"
       id="path54"
       style="fill:#ffffff" />
    <path
       d="M9840 4422 c-185 -649 -225 -801 -228 -864 -11 -212 126 -338 368 -338 196 0 381 91 496 243 26 34 58 85 71 114 13 28 123 399 244 825 121 425 222 781 225 791 5 16 -5 17 -147 15 l-153 -3 -223 -783 c-248 -872 -240 -849 -338 -897 -46 -23 -65 -27 -112 -23 -48 4 -61 10 -85 37 -21 23 -28 42 -28 70 0 22 99 387 220 811 121 425 220 776 220 781 0 5 -68 9 -152 9 l-153 0 -225 -788z"
       id="path56"
       style="fill:#ffffff" />
    <path
       d="M11433 3019 c-205 -20 -384 -143 -473 -322 -107 -219 -76 -344 152 -611 47 -54 100 -123 119 -154 30 -49 34 -65 34 -122 -1 -71 -15 -108 -61 -154 -51 -50 -102 -70 -181 -71 -86 0 -123 21 -137 79 -9 35 -7 50 21 149 5 17 0 18 -78 12 -46 -4 -111 -10 -144 -14 l-60 -6 -19 -55 c-13 -36 -20 -82 -20 -131 0 -68 3 -82 30 -125 32 -52 102 -106 162 -125 67 -21 223 -23 307 -4 95 21 234 90 302 150 106 93 183 246 183 364 0 114 -41 194 -206 403 -57 73 -116 155 -129 182 -69 137 16 305 162 322 128 16 170 -44 128 -182 -8 -27 -15 -49 -15 -49 0 -1 62 5 138 12 75 6 140 12 144 13 14 0 48 132 48 184 0 71 -16 121 -52 162 -67 76 -194 110 -355 93z"
       id="path58"
       style="fill:#ffffff" />
    <path
       d="M13103 3019 c-205 -20 -384 -143 -473 -322 -107 -219 -76 -344 152 -611 47 -54 100 -123 119 -154 30 -49 34 -65 34 -122 -1 -71 -15 -108 -61 -154 -51 -50 -102 -70 -181 -71 -86 0 -123 21 -137 79 -9 35 -7 50 21 149 5 17 0 18 -78 12 -46 -4 -111 -10 -144 -14 l-60 -6 -19 -55 c-13 -36 -20 -82 -20 -131 0 -68 3 -82 30 -125 32 -52 102 -106 162 -125 67 -21 223 -23 307 -4 95 21 234 90 302 150 106 93 183 246 183 364 0 114 -41 194 -206 403 -57 73 -116 155 -129 182 -69 137 16 305 162 322 128 16 170 -44 128 -182 -8 -27 -15 -49 -15 -49 0 -1 62 5 138 12 75 6 140 12 144 13 14 0 48 132 48 184 0 71 -16 121 -52 162 -67 76 -194 110 -355 93z"
       id="path60"
       style="fill:#ffffff" />
    <path
       d="M9022 3000 c-166 -44 -322 -160 -389 -287 -17 -32 -106 -274 -199 -538 -162 -464 -168 -483 -169 -560 0 -69 4 -86 27 -126 52 -88 141 -129 299 -136 127 -6 233 16 349 74 88 44 200 150 242 228 14 28 68 169 118 315 51 146 95 271 97 278 4 9 -46 12 -230 12 l-234 0 -40 -112 -39 -113 87 -5 87 -5 -57 -162 c-32 -89 -69 -177 -84 -196 -39 -52 -108 -82 -189 -82 -52 0 -73 5 -95 21 -56 42 -52 63 127 576 89 255 168 474 175 488 60 115 257 159 325 73 27 -35 25 -68 -10 -165 -16 -45 -30 -83 -30 -85 0 -2 66 -2 147 -1 l146 3 33 95 c26 73 34 111 34 165 0 117 -42 179 -155 231 -53 25 -74 28 -180 31 -95 2 -135 -1 -193 -17z"
       id="path62"
       style="fill:#ffffff" />
    <path
       d="M3041 2977 c-5 -13 -131 -372 -279 -798 -149 -426 -274 -782 -277 -791 -7 -17 17 -18 408 -18 l414 0 40 113 40 112 -263 3 c-201 2 -264 5 -264 15 0 6 36 113 79 237 l79 225 214 3 215 2 37 108 c20 59 36 113 36 120 0 9 -48 12 -205 12 -115 0 -205 4 -205 9 0 8 126 377 145 424 7 16 29 17 275 17 l268 0 23 68 c12 37 30 88 40 115 l19 47 -415 0 -415 0 -9 -23z"
       id="path64"
       style="fill:#ffffff" />
    <path
       d="M4111 2977 c-5 -13 -131 -372 -279 -798 -149 -426 -274 -782 -277 -791 -7 -17 4 -18 137 -18 l144 0 180 514 179 515 7 -237 c4 -130 11 -362 14 -514 l6 -278 154 0 c85 0 154 1 154 3 0 1 128 367 284 812 l283 810 -140 3 c-77 1 -142 1 -144 -2 -2 -2 -86 -239 -187 -527 -100 -288 -186 -531 -189 -539 -3 -8 -3 229 0 528 l6 542 -162 0 c-160 0 -162 0 -170 -23z"
       id="path66"
       style="fill:#ffffff" />
    <path
       d="M5287 2893 c-21 -60 -37 -111 -37 -115 0 -5 70 -8 156 -8 l155 0 -7 -22 c-3 -13 -112 -324 -240 -693 -129 -368 -234 -673 -234 -677 0 -5 65 -8 144 -8 l143 0 209 598 c114 328 224 642 244 697 l36 100 159 3 160 2 38 108 c20 59 37 110 37 115 0 4 -208 7 -463 7 l-463 0 -37 -107z"
       id="path68"
       style="fill:#ffffff" />
    <path
       d="M6471 2977 c-5 -13 -131 -372 -279 -798 -149 -426 -274 -782 -278 -792 -6 -16 3 -17 141 -15 l148 3 117 335 117 335 68 3 c37 2 72 -1 76 -5 6 -7 2 -215 -14 -590 l-3 -83 153 0 153 0 0 193 c0 105 3 270 7 365 l6 172 54 31 c75 43 166 130 208 199 48 78 135 340 135 405 0 105 -41 175 -129 219 -78 39 -137 46 -412 46 l-259 0 -9 -23z m467 -234 c49 -37 49 -65 -2 -212 -52 -152 -70 -181 -134 -218 -43 -26 -58 -28 -166 -32 -113 -3 -119 -2 -112 15 4 11 41 114 81 229 40 116 76 218 81 229 6 17 17 18 116 14 89 -4 113 -8 136 -25z"
       id="path70"
       style="fill:#ffffff" />
    <path
       d="M7671 2977 c-5 -13 -131 -372 -279 -798 -149 -426 -274 -782 -277 -791 -7 -17 17 -18 408 -18 l414 0 40 113 40 112 -263 3 c-201 2 -264 5 -264 15 0 6 36 113 79 237 l79 225 214 3 215 2 37 108 c20 59 36 113 36 120 0 9 -48 12 -205 12 -115 0 -205 4 -205 9 0 8 126 377 145 424 7 16 29 17 275 17 l268 0 23 68 c12 37 30 88 40 115 l19 47 -415 0 -415 0 -9 -23z"
       id="path72"
       style="fill:#ffffff" />
    <path
       d="M9724 2194 c-241 -443 -440 -810 -442 -815 -2 -5 61 -9 141 -9 l146 0 96 185 96 185 155 0 c85 0 154 -3 154 -7 0 -5 -14 -84 -30 -178 -16 -93 -30 -173 -30 -177 0 -5 67 -8 148 -8 l148 0 122 803 c68 441 123 808 122 815 0 9 -45 12 -193 12 l-194 0 -439 -806z m450 110 c-30 -175 -58 -322 -60 -326 -8 -13 -224 -10 -224 3 0 13 333 650 337 645 2 -2 -22 -146 -53 -322z"
       id="path74"
       style="fill:#ffffff" />
    <path
       d="M13891 2977 c-5 -13 -131 -372 -279 -798 -149 -426 -274 -782 -278 -792 -6 -16 3 -17 141 -15 l148 3 122 350 123 350 171 3 c94 1 171 -1 171 -6 0 -4 -54 -162 -120 -351 -66 -189 -120 -345 -120 -347 0 -3 66 -3 146 -2 l146 3 239 685 c131 377 259 742 284 813 l44 127 -147 0 -147 0 -89 -258 c-49 -141 -102 -294 -118 -339 l-30 -83 -169 0 c-95 0 -169 4 -169 9 0 8 204 600 225 654 7 16 -4 17 -139 17 -144 0 -147 0 -155 -23z"
       id="path76"
       style="fill:#ffffff" />
  </g>
</svg>
